<svg xmlns="http://www.w3.org/2000/svg" width="18" height="18" viewBox="0 0 1000 1000" fill="#777777">
    <path d="M500 10.2c-270.4 0-490 219.2-490 489.7 0 270.7 219.6 490 490 490 270.2 0 490-219.3 490-490 0-270.5-219.8-489.7-490-489.7zm0 912.5c-233.4 0-422.9-189.2-422.9-422.9C77.1 266.4 266.6 77.3 500 77.3c233.2 0 422.9 189.2 422.9 422.6 0 233.7-189.7 422.8-422.9 422.8z"/>
    <path d="M718.3 691.6c-14.4 16.4-34.4 24.7-54.6 24.7-17.1 0-34.1-5.9-47.9-18L501.5 597.9 390.3 701.8c-14 13-31.6 19.5-49.4 19.5-19.4 0-38.7-7.8-53.1-23.2-27.5-29.2-25.8-75.2 3.5-102.5l100.6-94.1-103.4-90.8c-30.1-26.5-33.2-72.3-6.7-102.4 14.4-16.4 34.4-24.7 54.6-24.7 17.1 0 34.1 5.9 47.9 18l114.3 100.5 111.2-103.9c14-13 31.8-19.5 49.4-19.5 19.5 0 38.7 7.8 53.1 23 27.5 29.4 25.8 75.4-3.4 102.7l-100.6 94.1 103.4 90.8c29.9 26.4 33 72.2 6.6 102.3z"/>
</svg>