<svg width="38" height="38" fill="none" xmlns="http://www.w3.org/2000/svg"><rect width="38" height="38" rx="4" fill="#230871" filter="url(#filter0_i)"/><path d="M12.554 6C11.026 6 9 9.56 9 12.277c0 1.791.693 2.763 1.73 3.219.834.367 1.324 1.141 1.233 1.948l-1.49 13.165c-.057.508.136 1.013.532 1.391.396.378.959.594 1.55.594.59 0 1.152-.216 1.548-.594.396-.378.59-.883.532-1.391l-1.49-13.165c-.09-.806.4-1.58 1.234-1.948 1.036-.456 1.73-1.428 1.73-3.219C16.108 9.56 14.162 6 12.553 6zm15.568 0c-.281 0-.51.197-.51.442v5.43c0 .246-.228.444-.512.444-.283 0-.512-.198-.512-.443V6.442c0-.245-.228-.442-.51-.442h-.005c-.281 0-.51.197-.51.442v5.43c0 .246-.229.444-.512.444-.283 0-.512-.198-.512-.443V6.442c0-.245-.228-.442-.51-.442h-.006c-.28 0-.509.197-.509.442v5.43c0 .246-.229.444-.512.444-.283 0-.512-.198-.512-.443V6.442c0-.245-.229-.442-.51-.442-.267 0-.483.187-.483.417v5.86c0 1.791.693 2.763 1.729 3.219.835.367 1.325 1.141 1.234 1.948L22.97 30.61c-.057.508.136 1.013.532 1.391.396.378.959.594 1.549.594s1.153-.216 1.55-.594c.395-.378.588-.883.531-1.391l-1.49-13.165c-.09-.806.4-1.58 1.234-1.948 1.036-.456 1.729-1.428 1.729-3.219v-5.86c0-.23-.216-.417-.483-.417z" fill="#fff"/><defs><filter id="filter0_i" x="0" y="0" width="38" height="38" filterUnits="userSpaceOnUse" color-interpolation-filters="sRGB"><feFlood flood-opacity="0" result="BackgroundImageFix"/><feBlend in="SourceGraphic" in2="BackgroundImageFix" result="shape"/><feColorMatrix in="SourceAlpha" values="0 0 0 0 0 0 0 0 0 0 0 0 0 0 0 0 0 0 127 0" result="hardAlpha"/><feOffset/><feGaussianBlur stdDeviation="2.5"/><feComposite in2="hardAlpha" operator="arithmetic" k2="-1" k3="1"/><feColorMatrix values="0 0 0 0 0 0 0 0 0 0 0 0 0 0 0 0 0 0 0.16 0"/><feBlend in2="shape" result="effect1_innerShadow"/></filter></defs></svg>