<svg width="123" height="14" viewBox="0 0 123 14" fill="none" xmlns="http://www.w3.org/2000/svg">
<path d="M0.56543 0.818359C0.56543 0.537109 0.717773 0.396484 1.02246 0.396484H2.69238C3.35449 0.396484 3.86426 0.674805 4.22168 1.23145L7.06934 5.61719L9.9082 1.23145C10.2715 0.674805 10.7812 0.396484 11.4375 0.396484H13.1162C13.415 0.396484 13.5645 0.537109 13.5645 0.818359C13.5645 0.947266 13.5176 1.08496 13.4238 1.23145L8.72168 8.5V12.1914C8.72168 12.4199 8.63965 12.6133 8.47559 12.7715C8.31738 12.9238 8.12402 13 7.89551 13H6.24316C6.01465 13 5.81836 12.9238 5.6543 12.7715C5.49023 12.6133 5.4082 12.4199 5.4082 12.1914V8.5L0.714844 1.23145C0.615234 1.08496 0.56543 0.947266 0.56543 0.818359ZM26.1943 11.6992C24.999 12.748 23.2412 13.2725 20.9209 13.2725C18.6064 13.2725 16.8486 12.748 15.6475 11.6992C14.4463 10.6445 13.8457 8.97754 13.8457 6.69824C13.8457 4.41895 14.4463 2.75488 15.6475 1.70605C16.8486 0.657227 18.6064 0.132812 20.9209 0.132812C23.2412 0.132812 24.999 0.657227 26.1943 1.70605C27.3955 2.75488 27.9961 4.41895 27.9961 6.69824C27.9961 8.97754 27.3955 10.6445 26.1943 11.6992ZM23.7949 3.56055C23.2031 2.85742 22.2451 2.50586 20.9209 2.50586C19.6025 2.50586 18.6445 2.85742 18.0469 3.56055C17.4551 4.26367 17.1592 5.3125 17.1592 6.70703C17.1592 8.0957 17.4551 9.1416 18.0469 9.84473C18.6445 10.542 19.6025 10.8906 20.9209 10.8906C22.2451 10.8906 23.2031 10.542 23.7949 9.84473C24.3867 9.1416 24.6826 8.0957 24.6826 6.70703C24.6826 5.3125 24.3867 4.26367 23.7949 3.56055ZM29.6309 8.0166V1.23145C29.6309 1.00293 29.71 0.806641 29.8682 0.642578C30.0322 0.478516 30.2344 0.396484 30.4746 0.396484H32.1182C32.3408 0.396484 32.5342 0.478516 32.6982 0.642578C32.8623 0.806641 32.9443 1.00293 32.9443 1.23145V8.03418C32.9443 8.89551 33.1318 9.53711 33.5068 9.95898C33.8877 10.3809 34.4736 10.5918 35.2646 10.5918H36.6709C37.4619 10.5918 38.0449 10.3809 38.4199 9.95898C38.8008 9.53711 38.9912 8.89551 38.9912 8.03418V1.23145C38.9912 1.00293 39.0703 0.806641 39.2285 0.642578C39.3926 0.478516 39.5889 0.396484 39.8174 0.396484H41.4521C41.6924 0.396484 41.8945 0.478516 42.0586 0.642578C42.2227 0.806641 42.3047 1.00293 42.3047 1.23145V8.0166C42.3047 9.62207 41.833 10.8672 40.8896 11.752C39.9463 12.6309 38.5693 13.0703 36.7588 13.0703H35.1768C33.3604 13.0703 31.9805 12.6309 31.0371 11.752C30.0996 10.8672 29.6309 9.62207 29.6309 8.0166ZM57.7295 12.6221C57.7295 12.874 57.5801 13 57.2812 13H55.1719C54.9492 13 54.7031 12.9209 54.4336 12.7627C54.1699 12.5986 53.9678 12.4023 53.8271 12.1738L52.333 9.83594C51.7178 8.875 50.9736 8.39453 50.1006 8.39453H47.9561V12.1738C47.9561 12.4023 47.874 12.5986 47.71 12.7627C47.5518 12.9209 47.3584 13 47.1299 13H45.4775C45.249 13 45.0527 12.9209 44.8887 12.7627C44.7246 12.5986 44.6426 12.4023 44.6426 12.1738V1.23145C44.6426 1.00293 44.7217 0.806641 44.8799 0.642578C45.0381 0.478516 45.2314 0.396484 45.46 0.396484H52.7109C54.0527 0.396484 55.1514 0.756836 56.0068 1.47754C56.8682 2.19824 57.2988 3.1709 57.2988 4.39551C57.2988 6.10059 56.1943 7.16992 53.9854 7.60352C54.3369 7.73242 54.6621 7.95508 54.9609 8.27148C55.2598 8.58203 55.6025 9.03613 55.9893 9.63379L57.5889 12.1738C57.6826 12.3379 57.7295 12.4873 57.7295 12.6221ZM47.9561 5.90723H51.7002C52.3037 5.90723 52.834 5.78711 53.291 5.54688C53.7539 5.30664 53.9854 4.92285 53.9854 4.39551C53.9854 3.86816 53.7539 3.48437 53.291 3.24414C52.834 3.00391 52.3037 2.88379 51.7002 2.88379H47.9561V5.90723ZM65.5078 12.1914V1.24902C65.5078 1.00879 65.5898 0.806641 65.7539 0.642578C65.918 0.478516 66.1143 0.396484 66.3428 0.396484H67.9951C68.2236 0.396484 68.417 0.478516 68.5752 0.642578C68.7393 0.806641 68.8213 1.00879 68.8213 1.24902V10.5127H76.4766C76.7051 10.5127 76.8984 10.5947 77.0566 10.7588C77.2207 10.9229 77.3027 11.1191 77.3027 11.3477V12.1738C77.3027 12.4023 77.2207 12.5986 77.0566 12.7627C76.8984 12.9209 76.7051 13 76.4766 13H66.3428C66.1143 13 65.918 12.9238 65.7539 12.7715C65.5898 12.6133 65.5078 12.4199 65.5078 12.1914ZM90.1084 11.6992C88.9131 12.748 87.1553 13.2725 84.835 13.2725C82.5205 13.2725 80.7627 12.748 79.5615 11.6992C78.3604 10.6445 77.7598 8.97754 77.7598 6.69824C77.7598 4.41895 78.3604 2.75488 79.5615 1.70605C80.7627 0.657227 82.5205 0.132812 84.835 0.132812C87.1553 0.132812 88.9131 0.657227 90.1084 1.70605C91.3096 2.75488 91.9102 4.41895 91.9102 6.69824C91.9102 8.97754 91.3096 10.6445 90.1084 11.6992ZM87.709 3.56055C87.1172 2.85742 86.1592 2.50586 84.835 2.50586C83.5166 2.50586 82.5586 2.85742 81.9609 3.56055C81.3691 4.26367 81.0732 5.3125 81.0732 6.70703C81.0732 8.0957 81.3691 9.1416 81.9609 9.84473C82.5586 10.542 83.5166 10.8906 84.835 10.8906C86.1592 10.8906 87.1172 10.542 87.709 9.84473C88.3008 9.1416 88.5967 8.0957 88.5967 6.70703C88.5967 5.3125 88.3008 4.26367 87.709 3.56055ZM99.0381 13.0703C97.0928 13.0703 95.5986 12.5459 94.5557 11.4971C93.5186 10.4482 93 8.8457 93 6.68945C93 4.52734 93.542 2.92773 94.626 1.89062C95.7158 0.847656 97.3477 0.326172 99.5215 0.326172H101.481C102.776 0.326172 103.942 0.636719 104.979 1.25781C106.022 1.87305 106.544 2.64355 106.544 3.56934C106.544 3.91504 106.441 4.16406 106.236 4.31641C106.031 4.46289 105.832 4.53613 105.639 4.53613H104.593C104.089 4.53613 103.688 4.24902 103.389 3.6748C103.09 3.10059 102.352 2.81348 101.174 2.81348H99.6094C98.3262 2.81348 97.4561 3.08887 96.999 3.63965C96.542 4.19043 96.3135 5.2041 96.3135 6.68066C96.3135 8.15723 96.5186 9.17969 96.9287 9.74805C97.3389 10.3105 98.0713 10.5918 99.126 10.5918H100.928C101.871 10.5918 102.545 10.4131 102.949 10.0557C103.354 9.69238 103.562 9.17383 103.573 8.5H101.587C101.358 8.5 101.162 8.4209 100.998 8.2627C100.84 8.09863 100.761 7.90234 100.761 7.67383V6.98828C100.761 6.75977 100.84 6.56641 100.998 6.4082C101.162 6.24414 101.358 6.16211 101.587 6.16211H105.999C106.228 6.16211 106.421 6.24414 106.579 6.4082C106.743 6.56641 106.825 6.75977 106.825 6.98828V7.96387C106.825 9.60449 106.333 10.8672 105.349 11.752C104.364 12.6309 102.92 13.0703 101.016 13.0703H99.0381ZM120.255 11.6992C119.06 12.748 117.302 13.2725 114.981 13.2725C112.667 13.2725 110.909 12.748 109.708 11.6992C108.507 10.6445 107.906 8.97754 107.906 6.69824C107.906 4.41895 108.507 2.75488 109.708 1.70605C110.909 0.657227 112.667 0.132812 114.981 0.132812C117.302 0.132812 119.06 0.657227 120.255 1.70605C121.456 2.75488 122.057 4.41895 122.057 6.69824C122.057 8.97754 121.456 10.6445 120.255 11.6992ZM117.855 3.56055C117.264 2.85742 116.306 2.50586 114.981 2.50586C113.663 2.50586 112.705 2.85742 112.107 3.56055C111.516 4.26367 111.22 5.3125 111.22 6.70703C111.22 8.0957 111.516 9.1416 112.107 9.84473C112.705 10.542 113.663 10.8906 114.981 10.8906C116.306 10.8906 117.264 10.542 117.855 9.84473C118.447 9.1416 118.743 8.0957 118.743 6.70703C118.743 5.3125 118.447 4.26367 117.855 3.56055Z" fill="#230871"/>
</svg>
