<svg width="38" height="38" fill="none" xmlns="http://www.w3.org/2000/svg"><rect width="38" height="38" rx="4" fill="#230871" filter="url(#filter0_i)"/><path d="M29.147 9.406H11.993a1.86 1.86 0 0 0-1.852 1.852v10.659a1.86 1.86 0 0 0 1.852 1.852h11.825l2.676 2.7a.573.573 0 0 0 .412.182.59.59 0 0 0 .595-.594V23.77h1.646A1.86 1.86 0 0 0 31 21.916V11.258a1.86 1.86 0 0 0-1.853-1.852zm-14.523 9.171a1.728 1.728 0 0 1-1.716-1.715c0-.938.778-1.715 1.716-1.715.937 0 1.715.777 1.715 1.715 0 .938-.755 1.716-1.715 1.716zm6.015 0a1.728 1.728 0 0 1-1.715-1.715c0-.938.777-1.715 1.715-1.715.938 0 1.715.777 1.715 1.715 0 .938-.777 1.716-1.715 1.716zm5.992 0a1.728 1.728 0 0 1-1.715-1.715c0-.938.778-1.715 1.715-1.715.938 0 1.716.777 1.716 1.715 0 .938-.778 1.716-1.716 1.716z" fill="#fff"/><path d="M9.088 21.963v-3.637H7.213A1.22 1.22 0 0 0 6 19.538v6.999a1.203 1.203 0 0 0 1.212 1.258h1.075v1.51a.4.4 0 0 0 .389.388.378.378 0 0 0 .274-.114l1.761-1.761h7.777a1.22 1.22 0 0 0 1.212-1.212v-1.739h-7.708a2.909 2.909 0 0 1-2.905-2.904z" fill="#fff"/><defs><filter id="filter0_i" x="0" y="0" width="38" height="38" filterUnits="userSpaceOnUse" color-interpolation-filters="sRGB"><feFlood flood-opacity="0" result="BackgroundImageFix"/><feBlend in="SourceGraphic" in2="BackgroundImageFix" result="shape"/><feColorMatrix in="SourceAlpha" values="0 0 0 0 0 0 0 0 0 0 0 0 0 0 0 0 0 0 127 0" result="hardAlpha"/><feOffset/><feGaussianBlur stdDeviation="2.5"/><feComposite in2="hardAlpha" operator="arithmetic" k2="-1" k3="1"/><feColorMatrix values="0 0 0 0 0 0 0 0 0 0 0 0 0 0 0 0 0 0 0.16 0"/><feBlend in2="shape" result="effect1_innerShadow"/></filter></defs></svg>