<svg width="38" height="38" fill="none" xmlns="http://www.w3.org/2000/svg"><path d="M34 0H4a4 4 0 0 0-4 4v30a4 4 0 0 0 4 4h30a4 4 0 0 0 4-4V4a4 4 0 0 0-4-4z" fill="#230871" filter="url(#filter0_i)"/><path d="M27.84 11.534h-.693V9.99c0-2.2-1.79-3.99-3.99-3.99H14.78c-2.2 0-3.99 1.79-3.99 3.99v1.544h-.632c-2.2 0-3.99 1.791-3.99 3.99v6.435c0 2.2 1.79 3.99 3.99 3.99h.627v5.059c0 1.097.895 1.992 1.992 1.992h12.372a1.996 1.996 0 0 0 1.992-1.992v-5.059h.7c2.199 0 3.99-1.79 3.99-3.99v-6.435c0-2.199-1.791-3.99-3.99-3.99zM12.296 9.99a2.484 2.484 0 0 1 2.48-2.48h8.37a2.484 2.484 0 0 1 2.48 2.48v1.544h-13.33V9.99zM25.63 31.02a.485.485 0 0 1-.48.48H12.776a.485.485 0 0 1-.482-.48v-8.344H25.63v8.343zm4.69-9.055a2.484 2.484 0 0 1-2.48 2.479h-.693v-1.768h.996c.42 0 .755-.336.755-.756a.752.752 0 0 0-.755-.755H9.677a.752.752 0 0 0-.756.755c0 .42.336.756.756.756h1.113v1.768h-.632a2.484 2.484 0 0 1-2.48-2.479V15.53a2.484 2.484 0 0 1 2.48-2.48H27.84a2.484 2.484 0 0 1 2.479 2.48v6.435z" fill="#fff"/><path d="M14.127 26.391h9.619c.42 0 .755-.335.755-.755a.752.752 0 0 0-.755-.756h-9.62a.756.756 0 0 0 0 1.51zm9.68 1.578h-9.624a.752.752 0 0 0-.756.756c0 .42.336.755.755.755h9.62c.42 0 .755-.335.755-.755a.751.751 0 0 0-.75-.756zM27.825 14.5h-1.533a.752.752 0 0 0-.756.755c0 .42.336.756.756.756h1.533c.42 0 .756-.336.756-.755a.752.752 0 0 0-.756-.756z" fill="#fff"/><defs><filter id="filter0_i" x="0" y="0" width="38" height="38" filterUnits="userSpaceOnUse" color-interpolation-filters="sRGB"><feFlood flood-opacity="0" result="BackgroundImageFix"/><feBlend in="SourceGraphic" in2="BackgroundImageFix" result="shape"/><feColorMatrix in="SourceAlpha" values="0 0 0 0 0 0 0 0 0 0 0 0 0 0 0 0 0 0 127 0" result="hardAlpha"/><feOffset/><feGaussianBlur stdDeviation="2.5"/><feComposite in2="hardAlpha" operator="arithmetic" k2="-1" k3="1"/><feColorMatrix values="0 0 0 0 0 0 0 0 0 0 0 0 0 0 0 0 0 0 0.16 0"/><feBlend in2="shape" result="effect1_innerShadow"/></filter></defs></svg>