<svg xmlns="http://www.w3.org/2000/svg" width="38" height="38" viewBox="0 0 8528 8542" shape-rendering="geometricPrecision" text-rendering="geometricPrecision" image-rendering="optimizeQuality" fill-rule="evenodd" clip-rule="evenodd"><path d="M1156 261c-574 0-897 297-897 903v6252c0 567 290 864 864 864h6278c574 0 864-282 864-864V1164c0-592-291-903-882-903 0 0-6229-2-6227 0z" fill-rule="nonzero" fill="#230871" stroke="#230871" stroke-width="47.335"/><path fill="#fff" d="M4548 1517v5462h-514V1517zm-2133 851c249 0 450-202 450-450 0-249-202-450-450-450-249 0-450 202-450 450 0 249 202 450 450 450zm-67 2854v1575c0 283-425 283-425 0V5222h-563l602-2088h-95l-354 1193c-84 260-442 153-360-125l394-1296c42-148 229-410 553-410h619c321 0 508 264 557 410l394 1295c79 278-276 394-360 122l-354-1189h-102l608 2088h-565v1577c0 281-423 280-423 0V5222h-126zm3279-2728c-317 0-572 262-572 589v1393c0 271 391 271 391 0V3202h93v3530c0 362 520 351 520 0V4666h90v2066c0 351 523 362 523 0V3202h90v1274c0 273 389 273 388 0V3091c0-301-231-597-579-597l-945-1zm475-126c249 0 450-202 450-450 0-249-202-450-450-450-249 0-450 202-450 450 0 249 202 450 450 450z"/></svg>